<svg width="319" height="16" viewBox="0 0 319 16" fill="none" xmlns="http://www.w3.org/2000/svg">
<path d="M108.546 9.36C108.546 9.93867 108.462 10.4613 108.294 10.928C108.126 11.3947 107.888 11.796 107.58 12.132C107.281 12.468 106.922 12.7293 106.502 12.916C106.082 13.0933 105.625 13.182 105.13 13.182C104.635 13.182 104.178 13.0933 103.758 12.916C103.338 12.7293 102.974 12.468 102.666 12.132C102.367 11.796 102.134 11.3947 101.966 10.928C101.798 10.4613 101.714 9.93867 101.714 9.36C101.714 8.79067 101.798 8.27267 101.966 7.806C102.134 7.33 102.367 6.924 102.666 6.588C102.974 6.252 103.338 5.99533 103.758 5.818C104.178 5.63133 104.635 5.538 105.13 5.538C105.625 5.538 106.082 5.63133 106.502 5.818C106.922 5.99533 107.281 6.252 107.58 6.588C107.888 6.924 108.126 7.33 108.294 7.806C108.462 8.27267 108.546 8.79067 108.546 9.36ZM107.188 9.36C107.188 8.53867 107.001 7.89 106.628 7.414C106.264 6.92867 105.765 6.686 105.13 6.686C104.495 6.686 103.991 6.92867 103.618 7.414C103.254 7.89 103.072 8.53867 103.072 9.36C103.072 10.1813 103.254 10.8347 103.618 11.32C103.991 11.796 104.495 12.034 105.13 12.034C105.765 12.034 106.264 11.796 106.628 11.32C107.001 10.8347 107.188 10.1813 107.188 9.36ZM113.066 5.566C113.178 5.566 113.304 5.57533 113.444 5.594C113.593 5.60333 113.738 5.622 113.878 5.65C114.018 5.66867 114.144 5.692 114.256 5.72C114.377 5.73867 114.466 5.75733 114.522 5.776L114.298 6.91C114.195 6.87267 114.022 6.83067 113.78 6.784C113.546 6.728 113.243 6.7 112.87 6.7C112.627 6.7 112.384 6.728 112.142 6.784C111.908 6.83067 111.754 6.86333 111.68 6.882V13H110.378V6.028C110.686 5.916 111.068 5.81333 111.526 5.72C111.983 5.61733 112.496 5.566 113.066 5.566ZM117.828 15.618C117.716 15.618 117.572 15.604 117.394 15.576C117.217 15.548 117.068 15.5107 116.946 15.464L117.114 14.4C117.208 14.428 117.315 14.4513 117.436 14.47C117.558 14.4887 117.67 14.498 117.772 14.498C118.22 14.498 118.538 14.358 118.724 14.078C118.92 13.8073 119.018 13.406 119.018 12.874V5.72H120.32V12.86C120.32 13.7933 120.106 14.484 119.676 14.932C119.256 15.3893 118.64 15.618 117.828 15.618ZM119.662 4.404C119.429 4.404 119.228 4.32933 119.06 4.18C118.902 4.02133 118.822 3.81133 118.822 3.55C118.822 3.28867 118.902 3.08333 119.06 2.934C119.228 2.77533 119.429 2.696 119.662 2.696C119.896 2.696 120.092 2.77533 120.25 2.934C120.418 3.08333 120.502 3.28867 120.502 3.55C120.502 3.81133 120.418 4.02133 120.25 4.18C120.092 4.32933 119.896 4.404 119.662 4.404ZM128.985 9.36C128.985 9.93867 128.901 10.4613 128.733 10.928C128.565 11.3947 128.327 11.796 128.019 12.132C127.721 12.468 127.361 12.7293 126.941 12.916C126.521 13.0933 126.064 13.182 125.569 13.182C125.075 13.182 124.617 13.0933 124.197 12.916C123.777 12.7293 123.413 12.468 123.105 12.132C122.807 11.796 122.573 11.3947 122.405 10.928C122.237 10.4613 122.153 9.93867 122.153 9.36C122.153 8.79067 122.237 8.27267 122.405 7.806C122.573 7.33 122.807 6.924 123.105 6.588C123.413 6.252 123.777 5.99533 124.197 5.818C124.617 5.63133 125.075 5.538 125.569 5.538C126.064 5.538 126.521 5.63133 126.941 5.818C127.361 5.99533 127.721 6.252 128.019 6.588C128.327 6.924 128.565 7.33 128.733 7.806C128.901 8.27267 128.985 8.79067 128.985 9.36ZM127.627 9.36C127.627 8.53867 127.441 7.89 127.067 7.414C126.703 6.92867 126.204 6.686 125.569 6.686C124.935 6.686 124.431 6.92867 124.057 7.414C123.693 7.89 123.511 8.53867 123.511 9.36C123.511 10.1813 123.693 10.8347 124.057 11.32C124.431 11.796 124.935 12.034 125.569 12.034C126.204 12.034 126.703 11.796 127.067 11.32C127.441 10.8347 127.627 10.1813 127.627 9.36ZM132.119 13H130.817V5.72H132.119V13ZM131.461 4.404C131.228 4.404 131.027 4.32933 130.859 4.18C130.701 4.02133 130.621 3.81133 130.621 3.55C130.621 3.28867 130.701 3.08333 130.859 2.934C131.027 2.77533 131.228 2.696 131.461 2.696C131.695 2.696 131.891 2.77533 132.049 2.934C132.217 3.08333 132.301 3.28867 132.301 3.55C132.301 3.81133 132.217 4.02133 132.049 4.18C131.891 4.32933 131.695 4.404 131.461 4.404ZM134.358 5.93C134.657 5.85533 135.054 5.776 135.548 5.692C136.043 5.608 136.612 5.566 137.256 5.566C137.835 5.566 138.316 5.65 138.698 5.818C139.081 5.97667 139.384 6.20533 139.608 6.504C139.842 6.79333 140.005 7.14333 140.098 7.554C140.192 7.96467 140.238 8.41733 140.238 8.912V13H138.936V9.192C138.936 8.744 138.904 8.36133 138.838 8.044C138.782 7.72667 138.684 7.47 138.544 7.274C138.404 7.078 138.218 6.938 137.984 6.854C137.751 6.76067 137.462 6.714 137.116 6.714C136.976 6.714 136.832 6.71867 136.682 6.728C136.533 6.73733 136.388 6.75133 136.248 6.77C136.118 6.77933 135.996 6.79333 135.884 6.812C135.782 6.83067 135.707 6.84467 135.66 6.854V13H134.358V5.93ZM148.102 12.062C148.41 12.062 148.68 12.0573 148.914 12.048C149.156 12.0293 149.357 12.0013 149.516 11.964V9.794C149.422 9.74733 149.268 9.71 149.054 9.682C148.848 9.64467 148.596 9.626 148.298 9.626C148.102 9.626 147.892 9.64 147.668 9.668C147.453 9.696 147.252 9.75667 147.066 9.85C146.888 9.934 146.739 10.0553 146.618 10.214C146.496 10.3633 146.436 10.564 146.436 10.816C146.436 11.2827 146.585 11.6093 146.884 11.796C147.182 11.9733 147.588 12.062 148.102 12.062ZM147.99 5.538C148.512 5.538 148.951 5.608 149.306 5.748C149.67 5.87867 149.959 6.07 150.174 6.322C150.398 6.56467 150.556 6.85867 150.65 7.204C150.743 7.54 150.79 7.91333 150.79 8.324V12.874C150.678 12.8927 150.519 12.9207 150.314 12.958C150.118 12.986 149.894 13.014 149.642 13.042C149.39 13.07 149.114 13.0933 148.816 13.112C148.526 13.14 148.237 13.154 147.948 13.154C147.537 13.154 147.159 13.112 146.814 13.028C146.468 12.944 146.17 12.8133 145.918 12.636C145.666 12.4493 145.47 12.2067 145.33 11.908C145.19 11.6093 145.12 11.25 145.12 10.83C145.12 10.4287 145.199 10.0833 145.358 9.794C145.526 9.50467 145.75 9.27133 146.03 9.094C146.31 8.91667 146.636 8.786 147.01 8.702C147.383 8.618 147.775 8.576 148.186 8.576C148.316 8.576 148.452 8.58533 148.592 8.604C148.732 8.61333 148.862 8.632 148.984 8.66C149.114 8.67867 149.226 8.69733 149.32 8.716C149.413 8.73467 149.478 8.74867 149.516 8.758V8.394C149.516 8.17933 149.492 7.96933 149.446 7.764C149.399 7.54933 149.315 7.36267 149.194 7.204C149.072 7.036 148.904 6.90533 148.69 6.812C148.484 6.70933 148.214 6.658 147.878 6.658C147.448 6.658 147.07 6.69067 146.744 6.756C146.426 6.812 146.188 6.87267 146.03 6.938L145.876 5.86C146.044 5.78533 146.324 5.71533 146.716 5.65C147.108 5.57533 147.532 5.538 147.99 5.538ZM152.952 5.93C153.251 5.85533 153.647 5.776 154.142 5.692C154.637 5.608 155.206 5.566 155.85 5.566C156.429 5.566 156.909 5.65 157.292 5.818C157.675 5.97667 157.978 6.20533 158.202 6.504C158.435 6.79333 158.599 7.14333 158.692 7.554C158.785 7.96467 158.832 8.41733 158.832 8.912V13H157.53V9.192C157.53 8.744 157.497 8.36133 157.432 8.044C157.376 7.72667 157.278 7.47 157.138 7.274C156.998 7.078 156.811 6.938 156.578 6.854C156.345 6.76067 156.055 6.714 155.71 6.714C155.57 6.714 155.425 6.71867 155.276 6.728C155.127 6.73733 154.982 6.75133 154.842 6.77C154.711 6.77933 154.59 6.79333 154.478 6.812C154.375 6.83067 154.301 6.84467 154.254 6.854V13H152.952V5.93ZM167.417 9.36C167.417 9.93867 167.333 10.4613 167.165 10.928C166.997 11.3947 166.759 11.796 166.451 12.132C166.152 12.468 165.793 12.7293 165.373 12.916C164.953 13.0933 164.496 13.182 164.001 13.182C163.506 13.182 163.049 13.0933 162.629 12.916C162.209 12.7293 161.845 12.468 161.537 12.132C161.238 11.796 161.005 11.3947 160.837 10.928C160.669 10.4613 160.585 9.93867 160.585 9.36C160.585 8.79067 160.669 8.27267 160.837 7.806C161.005 7.33 161.238 6.924 161.537 6.588C161.845 6.252 162.209 5.99533 162.629 5.818C163.049 5.63133 163.506 5.538 164.001 5.538C164.496 5.538 164.953 5.63133 165.373 5.818C165.793 5.99533 166.152 6.252 166.451 6.588C166.759 6.924 166.997 7.33 167.165 7.806C167.333 8.27267 167.417 8.79067 167.417 9.36ZM166.059 9.36C166.059 8.53867 165.872 7.89 165.499 7.414C165.135 6.92867 164.636 6.686 164.001 6.686C163.366 6.686 162.862 6.92867 162.489 7.414C162.125 7.89 161.943 8.53867 161.943 9.36C161.943 10.1813 162.125 10.8347 162.489 11.32C162.862 11.796 163.366 12.034 164.001 12.034C164.636 12.034 165.135 11.796 165.499 11.32C165.872 10.8347 166.059 10.1813 166.059 9.36ZM169.249 5.93C169.548 5.85533 169.944 5.776 170.439 5.692C170.934 5.608 171.503 5.566 172.147 5.566C172.726 5.566 173.206 5.65 173.589 5.818C173.972 5.97667 174.275 6.20533 174.499 6.504C174.732 6.79333 174.896 7.14333 174.989 7.554C175.082 7.96467 175.129 8.41733 175.129 8.912V13H173.827V9.192C173.827 8.744 173.794 8.36133 173.729 8.044C173.673 7.72667 173.575 7.47 173.435 7.274C173.295 7.078 173.108 6.938 172.875 6.854C172.642 6.76067 172.352 6.714 172.007 6.714C171.867 6.714 171.722 6.71867 171.573 6.728C171.424 6.73733 171.279 6.75133 171.139 6.77C171.008 6.77933 170.887 6.79333 170.775 6.812C170.672 6.83067 170.598 6.84467 170.551 6.854V13H169.249V5.93ZM176.188 14.358C176.291 14.4047 176.421 14.4467 176.58 14.484C176.748 14.5307 176.911 14.554 177.07 14.554C177.583 14.554 177.985 14.4373 178.274 14.204C178.563 13.98 178.825 13.6113 179.058 13.098C178.47 11.978 177.919 10.7927 177.406 9.542C176.902 8.282 176.482 7.008 176.146 5.72H177.546C177.649 6.14 177.77 6.59267 177.91 7.078C178.059 7.56333 178.223 8.06267 178.4 8.576C178.577 9.08933 178.769 9.60267 178.974 10.116C179.179 10.6293 179.394 11.124 179.618 11.6C179.973 10.62 180.281 9.64933 180.542 8.688C180.803 7.72667 181.051 6.73733 181.284 5.72H182.628C182.292 7.092 181.919 8.41267 181.508 9.682C181.097 10.942 180.654 12.1227 180.178 13.224C179.991 13.644 179.795 14.0033 179.59 14.302C179.394 14.61 179.175 14.862 178.932 15.058C178.689 15.254 178.414 15.3987 178.106 15.492C177.807 15.5853 177.467 15.632 177.084 15.632C176.981 15.632 176.874 15.6227 176.762 15.604C176.65 15.5947 176.538 15.576 176.426 15.548C176.323 15.5293 176.225 15.506 176.132 15.478C176.048 15.45 175.987 15.4267 175.95 15.408L176.188 14.358ZM184.001 5.93C184.3 5.85533 184.692 5.776 185.177 5.692C185.672 5.608 186.241 5.566 186.885 5.566C187.352 5.566 187.744 5.63133 188.061 5.762C188.378 5.88333 188.644 6.06533 188.859 6.308C188.924 6.26133 189.027 6.196 189.167 6.112C189.307 6.028 189.48 5.94867 189.685 5.874C189.89 5.79 190.119 5.72 190.371 5.664C190.623 5.59867 190.894 5.566 191.183 5.566C191.743 5.566 192.2 5.65 192.555 5.818C192.91 5.97667 193.185 6.20533 193.381 6.504C193.586 6.80267 193.722 7.15733 193.787 7.568C193.862 7.97867 193.899 8.42667 193.899 8.912V13H192.597V9.192C192.597 8.76267 192.574 8.394 192.527 8.086C192.49 7.778 192.41 7.52133 192.289 7.316C192.177 7.11067 192.018 6.96133 191.813 6.868C191.617 6.76533 191.36 6.714 191.043 6.714C190.604 6.714 190.24 6.77467 189.951 6.896C189.671 7.008 189.48 7.11067 189.377 7.204C189.452 7.44667 189.508 7.71267 189.545 8.002C189.582 8.29133 189.601 8.59467 189.601 8.912V13H188.299V9.192C188.299 8.76267 188.276 8.394 188.229 8.086C188.182 7.778 188.098 7.52133 187.977 7.316C187.865 7.11067 187.706 6.96133 187.501 6.868C187.305 6.76533 187.053 6.714 186.745 6.714C186.614 6.714 186.474 6.71867 186.325 6.728C186.176 6.73733 186.031 6.75133 185.891 6.77C185.76 6.77933 185.639 6.79333 185.527 6.812C185.415 6.83067 185.34 6.84467 185.303 6.854V13H184.001V5.93ZM202.485 9.36C202.485 9.93867 202.401 10.4613 202.233 10.928C202.065 11.3947 201.827 11.796 201.519 12.132C201.221 12.468 200.861 12.7293 200.441 12.916C200.021 13.0933 199.564 13.182 199.069 13.182C198.575 13.182 198.117 13.0933 197.697 12.916C197.277 12.7293 196.913 12.468 196.605 12.132C196.307 11.796 196.073 11.3947 195.905 10.928C195.737 10.4613 195.653 9.93867 195.653 9.36C195.653 8.79067 195.737 8.27267 195.905 7.806C196.073 7.33 196.307 6.924 196.605 6.588C196.913 6.252 197.277 5.99533 197.697 5.818C198.117 5.63133 198.575 5.538 199.069 5.538C199.564 5.538 200.021 5.63133 200.441 5.818C200.861 5.99533 201.221 6.252 201.519 6.588C201.827 6.924 202.065 7.33 202.233 7.806C202.401 8.27267 202.485 8.79067 202.485 9.36ZM201.127 9.36C201.127 8.53867 200.941 7.89 200.567 7.414C200.203 6.92867 199.704 6.686 199.069 6.686C198.435 6.686 197.931 6.92867 197.557 7.414C197.193 7.89 197.011 8.53867 197.011 9.36C197.011 10.1813 197.193 10.8347 197.557 11.32C197.931 11.796 198.435 12.034 199.069 12.034C199.704 12.034 200.203 11.796 200.567 11.32C200.941 10.8347 201.127 10.1813 201.127 9.36ZM210.113 12.79C209.815 12.8647 209.418 12.944 208.923 13.028C208.438 13.112 207.873 13.154 207.229 13.154C206.669 13.154 206.198 13.0747 205.815 12.916C205.433 12.748 205.125 12.5147 204.891 12.216C204.658 11.9173 204.49 11.5673 204.387 11.166C204.285 10.7553 204.233 10.3027 204.233 9.808V5.72H205.535V9.528C205.535 10.4147 205.675 11.0493 205.955 11.432C206.235 11.8147 206.707 12.006 207.369 12.006C207.509 12.006 207.654 12.0013 207.803 11.992C207.953 11.9827 208.093 11.9733 208.223 11.964C208.354 11.9453 208.471 11.9313 208.573 11.922C208.685 11.9033 208.765 11.8847 208.811 11.866V5.72H210.113V12.79ZM214.05 12.062C214.582 12.062 214.974 11.992 215.226 11.852C215.488 11.712 215.618 11.488 215.618 11.18C215.618 10.8627 215.492 10.6107 215.24 10.424C214.988 10.2373 214.573 10.0273 213.994 9.794C213.714 9.682 213.444 9.57 213.182 9.458C212.93 9.33667 212.711 9.19667 212.524 9.038C212.338 8.87933 212.188 8.688 212.076 8.464C211.964 8.24 211.908 7.96467 211.908 7.638C211.908 6.994 212.146 6.48533 212.622 6.112C213.098 5.72933 213.747 5.538 214.568 5.538C214.774 5.538 214.979 5.552 215.184 5.58C215.39 5.59867 215.581 5.62667 215.758 5.664C215.936 5.692 216.09 5.72467 216.22 5.762C216.36 5.79933 216.468 5.832 216.542 5.86L216.304 6.98C216.164 6.90533 215.945 6.83067 215.646 6.756C215.348 6.672 214.988 6.63 214.568 6.63C214.204 6.63 213.887 6.70467 213.616 6.854C213.346 6.994 213.21 7.218 213.21 7.526C213.21 7.68467 213.238 7.82467 213.294 7.946C213.36 8.06733 213.453 8.17933 213.574 8.282C213.705 8.37533 213.864 8.464 214.05 8.548C214.237 8.632 214.461 8.72067 214.722 8.814C215.068 8.94467 215.376 9.07533 215.646 9.206C215.917 9.32733 216.146 9.472 216.332 9.64C216.528 9.808 216.678 10.0133 216.78 10.256C216.883 10.4893 216.934 10.7787 216.934 11.124C216.934 11.796 216.682 12.3047 216.178 12.65C215.684 12.9953 214.974 13.168 214.05 13.168C213.406 13.168 212.902 13.112 212.538 13C212.174 12.8973 211.927 12.818 211.796 12.762L212.034 11.642C212.184 11.698 212.422 11.782 212.748 11.894C213.075 12.006 213.509 12.062 214.05 12.062ZM220.788 13.14C219.986 13.1213 219.416 12.9487 219.08 12.622C218.744 12.2953 218.576 11.7867 218.576 11.096V2.36L219.878 2.136V10.886C219.878 11.1007 219.897 11.278 219.934 11.418C219.972 11.558 220.032 11.67 220.116 11.754C220.2 11.838 220.312 11.9033 220.452 11.95C220.592 11.9873 220.765 12.02 220.97 12.048L220.788 13.14ZM221.579 14.358C221.681 14.4047 221.812 14.4467 221.971 14.484C222.139 14.5307 222.302 14.554 222.461 14.554C222.974 14.554 223.375 14.4373 223.665 14.204C223.954 13.98 224.215 13.6113 224.449 13.098C223.861 11.978 223.31 10.7927 222.797 9.542C222.293 8.282 221.873 7.008 221.537 5.72H222.937C223.039 6.14 223.161 6.59267 223.301 7.078C223.45 7.56333 223.613 8.06267 223.791 8.576C223.968 9.08933 224.159 9.60267 224.365 10.116C224.57 10.6293 224.785 11.124 225.008 11.6C225.363 10.62 225.671 9.64933 225.933 8.688C226.194 7.72667 226.441 6.73733 226.675 5.72H228.019C227.683 7.092 227.309 8.41267 226.899 9.682C226.488 10.942 226.045 12.1227 225.569 13.224C225.382 13.644 225.186 14.0033 224.981 14.302C224.785 14.61 224.565 14.862 224.323 15.058C224.08 15.254 223.805 15.3987 223.497 15.492C223.198 15.5853 222.857 15.632 222.475 15.632C222.372 15.632 222.265 15.6227 222.153 15.604C222.041 15.5947 221.929 15.576 221.817 15.548C221.714 15.5293 221.616 15.506 221.523 15.478C221.439 15.45 221.378 15.4267 221.341 15.408L221.579 14.358Z" fill="#A8A8B3"/>
<line y1="7.5" x2="76" y2="7.5" stroke="#A8A8B3"/>
<line x1="243" y1="7.5" x2="319" y2="7.5" stroke="#A8A8B3"/>
</svg>
