<svg width="298" height="66" viewBox="0 0 298 66" fill="none" xmlns="http://www.w3.org/2000/svg">
<path fill-rule="evenodd" clip-rule="evenodd" d="M29.7876 54.6638C29.7876 53.1682 31 51.9558 32.4956 51.9558H56.8672C58.3628 51.9558 59.5752 53.1682 59.5752 54.6638C59.5752 56.1593 58.3628 57.3717 56.8672 57.3717H32.4956C31 57.3717 29.7876 56.1593 29.7876 54.6638Z" fill="#FDBAA3"/>
<path fill-rule="evenodd" clip-rule="evenodd" d="M48.7433 11.0077C47.9379 11.0077 47.1656 11.3276 46.5961 11.8971L13.277 45.2163L11.8455 50.942L17.5712 49.5105L50.8904 16.1913C51.1724 15.9094 51.396 15.5746 51.5486 15.2062C51.7012 14.8378 51.7798 14.443 51.7798 14.0442C51.7798 13.6455 51.7012 13.2506 51.5486 12.8822C51.396 12.5138 51.1724 12.1791 50.8904 11.8971C50.6084 11.6151 50.2737 11.3915 49.9053 11.2389C49.5369 11.0863 49.142 11.0077 48.7433 11.0077ZM42.7665 8.06745C44.3516 6.48232 46.5015 5.5918 48.7433 5.5918C49.8533 5.5918 50.9524 5.81043 51.9779 6.2352C53.0034 6.65997 53.9352 7.28257 54.72 8.06745C55.5049 8.85233 56.1275 9.78412 56.5523 10.8096C56.9771 11.8351 57.1957 12.9342 57.1957 14.0442C57.1957 15.1542 56.9771 16.2533 56.5523 17.2788C56.1275 18.3043 55.5049 19.2361 54.72 20.021L20.8705 53.8705C20.5234 54.2176 20.0886 54.4638 19.6124 54.5828L8.78057 57.2908C7.85776 57.5215 6.88158 57.2511 6.20897 56.5785C5.53637 55.9059 5.26598 54.9297 5.49668 54.0069L8.20465 43.1751C8.32368 42.6989 8.56989 42.2641 8.91694 41.917L42.7665 8.06745Z" fill="#1B1F23"/>
<path d="M106.315 17.119C106.315 16.9384 106.369 16.794 106.477 16.6857C106.622 16.5413 106.784 16.469 106.965 16.469H113.301C113.482 16.469 113.626 16.5413 113.735 16.6857C113.879 16.794 113.951 16.9384 113.951 17.119V53.7306C113.951 53.9112 113.879 54.0736 113.735 54.2181C113.626 54.3264 113.482 54.3805 113.301 54.3805H107.181C106.82 54.3805 106.568 54.2361 106.423 53.9473L92.3958 30.7671C92.3236 30.6588 92.2514 30.6227 92.1792 30.6588C92.107 30.6588 92.0709 30.731 92.0709 30.8754L92.1792 53.7306C92.1792 53.9112 92.107 54.0736 91.9625 54.2181C91.8542 54.3264 91.7098 54.3805 91.5293 54.3805H85.1926C85.0121 54.3805 84.8496 54.3264 84.7052 54.2181C84.5969 54.0736 84.5427 53.9112 84.5427 53.7306V17.119C84.5427 16.9384 84.5969 16.794 84.7052 16.6857C84.8496 16.5413 85.0121 16.469 85.1926 16.469H91.3126C91.6737 16.469 91.9264 16.6135 92.0709 16.9023L106.044 39.9742C106.116 40.0825 106.188 40.1367 106.261 40.1367C106.333 40.1005 106.369 40.0103 106.369 39.8659L106.315 17.119Z" fill="#1B1F23"/>
<path d="M134.046 54.9763C131.23 54.9763 128.739 54.3986 126.572 53.2432C124.442 52.0878 122.781 50.4811 121.59 48.423C120.398 46.3289 119.803 43.9278 119.803 41.2198V29.6297C119.803 26.9579 120.398 24.5929 121.59 22.5349C122.781 20.4768 124.442 18.8882 126.572 17.7689C128.739 16.6135 131.23 16.0358 134.046 16.0358C136.899 16.0358 139.39 16.6135 141.52 17.7689C143.687 18.8882 145.366 20.4768 146.557 22.5349C147.749 24.5929 148.344 26.9579 148.344 29.6297V41.2198C148.344 43.9278 147.749 46.3289 146.557 48.423C145.366 50.5172 143.687 52.142 141.52 53.2974C139.39 54.4167 136.899 54.9763 134.046 54.9763ZM134.046 48.423C136.032 48.423 137.639 47.7912 138.867 46.5274C140.094 45.2637 140.708 43.5848 140.708 41.4906V29.5756C140.708 27.4814 140.094 25.8025 138.867 24.5388C137.675 23.239 136.068 22.589 134.046 22.589C132.061 22.589 130.454 23.239 129.226 24.5388C128.035 25.8025 127.439 27.4814 127.439 29.5756V41.4906C127.439 43.5848 128.035 45.2637 129.226 46.5274C130.454 47.7912 132.061 48.423 134.046 48.423Z" fill="#1B1F23"/>
<path d="M179.935 16.469C180.115 16.469 180.26 16.5413 180.368 16.6857C180.512 16.794 180.585 16.9384 180.585 17.119V22.4266C180.585 22.6071 180.512 22.7696 180.368 22.914C180.26 23.0223 180.115 23.0765 179.935 23.0765H170.24C170.06 23.0765 169.969 23.1667 169.969 23.3473V53.7306C169.969 53.9112 169.897 54.0736 169.753 54.2181C169.644 54.3264 169.5 54.3805 169.319 54.3805H162.983C162.802 54.3805 162.64 54.3264 162.495 54.2181C162.387 54.0736 162.333 53.9112 162.333 53.7306V23.3473C162.333 23.1667 162.243 23.0765 162.062 23.0765H152.638C152.458 23.0765 152.295 23.0223 152.151 22.914C152.043 22.7696 151.988 22.6071 151.988 22.4266V17.119C151.988 16.9384 152.043 16.794 152.151 16.6857C152.295 16.5413 152.458 16.469 152.638 16.469H179.935Z" fill="#1B1F23"/>
<path d="M211.778 22.3724C211.778 22.5529 211.706 22.7154 211.562 22.8598C211.453 22.9682 211.309 23.0223 211.128 23.0223H193.364C193.183 23.0223 193.093 23.1126 193.093 23.2931V31.6878C193.093 31.8683 193.183 31.9586 193.364 31.9586H205.008C205.189 31.9586 205.333 32.0308 205.442 32.1752C205.586 32.2836 205.658 32.428 205.658 32.6085V37.862C205.658 38.0425 205.586 38.205 205.442 38.3494C205.333 38.4577 205.189 38.5119 205.008 38.5119H193.364C193.183 38.5119 193.093 38.6021 193.093 38.7827V47.5565C193.093 47.737 193.183 47.8273 193.364 47.8273H211.128C211.309 47.8273 211.453 47.8995 211.562 48.0439C211.706 48.1522 211.778 48.2967 211.778 48.4772V53.7306C211.778 53.9112 211.706 54.0736 211.562 54.2181C211.453 54.3264 211.309 54.3805 211.128 54.3805H186.107C185.926 54.3805 185.764 54.3264 185.619 54.2181C185.511 54.0736 185.457 53.9112 185.457 53.7306V17.119C185.457 16.9384 185.511 16.794 185.619 16.6857C185.764 16.5413 185.926 16.469 186.107 16.469H211.128C211.309 16.469 211.453 16.5413 211.562 16.6857C211.706 16.794 211.778 16.9384 211.778 17.119V22.3724Z" fill="#1B1F23"/>
<path d="M220.822 54.5972C219.594 54.5972 218.565 54.2 217.735 53.4057C216.94 52.5752 216.543 51.5462 216.543 50.3186C216.543 49.0549 216.94 48.0259 217.735 47.2315C218.529 46.4372 219.558 46.04 220.822 46.04C222.086 46.04 223.115 46.4372 223.909 47.2315C224.703 48.0259 225.1 49.0549 225.1 50.3186C225.1 51.5462 224.685 52.5752 223.855 53.4057C223.06 54.2 222.05 54.5972 220.822 54.5972Z" fill="#1B1F23"/>
<path d="M261.849 26.5968C264.196 26.5968 266.02 27.2648 267.319 28.6007C268.655 29.9005 269.323 31.7239 269.323 34.0708C269.323 34.3597 269.287 34.9013 269.215 35.6956L266.994 53.839C266.922 54.2 266.724 54.3805 266.399 54.3805H263.799C263.474 54.3805 263.312 54.2 263.312 53.839L265.478 36.4538C265.514 36.2011 265.532 35.84 265.532 35.3706C265.532 33.7097 265.063 32.3919 264.124 31.417C263.185 30.4421 261.903 29.9547 260.279 29.9547C258.401 29.9547 256.831 30.5324 255.567 31.6878C254.303 32.8432 253.545 34.3958 253.292 36.3455L251.126 53.839C251.126 53.9834 251.072 54.1097 250.963 54.2181C250.855 54.3264 250.71 54.3805 250.53 54.3805H247.876C247.551 54.3805 247.389 54.2 247.389 53.839L249.555 36.4538C249.591 36.2011 249.609 35.822 249.609 35.3165C249.609 33.6556 249.14 32.3558 248.201 31.417C247.262 30.4421 245.981 29.9547 244.356 29.9547C242.514 29.9547 240.962 30.5324 239.698 31.6878C238.47 32.8432 237.73 34.3958 237.478 36.3455L235.311 53.839C235.311 53.9834 235.257 54.1097 235.149 54.2181C235.04 54.3264 234.896 54.3805 234.715 54.3805H232.062C231.737 54.3805 231.574 54.2 231.574 53.839L234.824 27.5175C234.896 27.1565 235.095 26.9759 235.42 26.9759H238.073C238.254 26.9759 238.38 27.0301 238.452 27.1384C238.561 27.2467 238.597 27.3731 238.561 27.5175L238.29 29.6839C238.29 29.7561 238.308 29.8103 238.344 29.8464C238.416 29.8464 238.489 29.8103 238.561 29.7381C239.463 28.691 240.547 27.9147 241.81 27.4092C243.074 26.8676 244.446 26.5968 245.926 26.5968C247.732 26.5968 249.23 26.9759 250.422 27.7342C251.649 28.4924 252.516 29.5936 253.021 31.0379C253.021 31.1101 253.039 31.1462 253.075 31.1462C253.148 31.1462 253.202 31.1101 253.238 31.0379C254.177 29.5575 255.404 28.4563 256.921 27.7342C258.437 26.9759 260.08 26.5968 261.849 26.5968Z" fill="#1B1F23"/>
<path d="M297.211 36.0747C297.211 37.4467 297.049 39.2882 296.724 41.599C296.724 41.7434 296.669 41.8697 296.561 41.9781C296.453 42.0864 296.308 42.1405 296.128 42.1405H279.176C279.032 42.1405 278.959 42.2128 278.959 42.3572C278.815 43.9459 278.743 44.9568 278.743 45.3901C278.743 47.2315 279.32 48.7119 280.476 49.8312C281.667 50.9144 283.328 51.4559 285.458 51.4559C286.975 51.4559 288.311 51.1129 289.466 50.4269C290.658 49.7409 291.651 48.766 292.445 47.5023C292.734 47.1774 292.987 47.1051 293.203 47.2857L295.099 48.5313C295.388 48.7119 295.424 48.9646 295.207 49.2896C294.124 51.0227 292.644 52.3947 290.766 53.4057C288.925 54.3805 286.849 54.868 284.538 54.868C282.046 54.8319 280.043 54.2181 278.526 53.0266C277.01 51.8351 275.999 50.1742 275.493 48.0439C275.277 47.1051 275.168 46.0581 275.168 44.9027C275.168 43.639 275.277 42.1947 275.493 40.5699C275.674 39.0174 275.854 37.7717 276.035 36.8329C276.215 35.8942 276.45 35.0457 276.739 34.2874C277.605 31.9405 279.032 30.063 281.017 28.6549C283.003 27.2467 285.278 26.5427 287.841 26.5427C291.019 26.5427 293.366 27.3731 294.882 29.034C296.399 30.6949 297.175 33.0418 297.211 36.0747ZM287.408 29.9005C285.711 29.9005 284.231 30.3699 282.967 31.3087C281.74 32.2113 280.837 33.439 280.259 34.9915C280.006 35.7136 279.718 36.9413 279.393 38.6744C279.393 38.8188 279.465 38.891 279.609 38.891H293.203C293.348 38.891 293.42 38.8188 293.42 38.6744C293.492 37.2301 293.528 36.3094 293.528 35.9122C293.528 34.1069 292.987 32.6627 291.903 31.5795C290.82 30.4602 289.322 29.9005 287.408 29.9005Z" fill="#1B1F23"/>
</svg>
