<svg width="48" height="48" viewBox="0 0 48 48" fill="none" xmlns="http://www.w3.org/2000/svg">
<path fill-rule="evenodd" clip-rule="evenodd" d="M22 40C22 38.8954 22.8954 38 24 38H42C43.1046 38 44 38.8954 44 40C44 41.1046 43.1046 42 42 42H24C22.8954 42 22 41.1046 22 40Z" fill="#FDBAA3"/>
<path fill-rule="evenodd" clip-rule="evenodd" d="M36 7.75732C35.4053 7.75732 34.8348 7.9936 34.4143 8.41418L9.80597 33.0225L8.74878 37.2512L12.9775 36.194L37.5858 11.5858C37.7941 11.3775 37.9593 11.1303 38.072 10.8582C38.1847 10.5861 38.2427 10.2945 38.2427 9.99996C38.2427 9.70546 38.1847 9.41383 38.072 9.14174C37.9593 8.86965 37.7941 8.62243 37.5858 8.41418C37.3776 8.20593 37.1304 8.04074 36.8583 7.92803C36.5862 7.81533 36.2945 7.75732 36 7.75732ZM31.5858 5.58575C32.7565 4.41503 34.3444 3.75732 36 3.75732C36.8198 3.75732 37.6316 3.91879 38.389 4.23252C39.1464 4.54624 39.8346 5.00607 40.4143 5.58575C40.9939 6.16543 41.4538 6.85362 41.7675 7.61101C42.0812 8.3684 42.2427 9.18017 42.2427 9.99996C42.2427 10.8198 42.0812 11.6315 41.7675 12.3889C41.4538 13.1463 40.9939 13.8345 40.4143 14.4142L15.4143 39.4142C15.1579 39.6705 14.8368 39.8523 14.4851 39.9403L6.48511 41.9403C5.80356 42.1106 5.08259 41.9109 4.58583 41.4142C4.08907 40.9174 3.88937 40.1964 4.05976 39.5149L6.05976 31.5149C6.14767 31.1632 6.32951 30.8421 6.58583 30.5858L31.5858 5.58575Z" fill="#3C3D43"/>
</svg>
